<svg width="400px" height="400px" xmlns="http://www.w3.org/2000/svg" version="1.1" xmlns:xlink="http://www.w3.org/1999/xlink">
    <polyline transform="matrix(4.1,0,0,6.2,-69,-357.8)" stroke="rgb(0, 0, 0)" fill="rgb(255, 255, 255)" points="29.8,121.7 30.3,111.9 17.1,115.7 29.8,104.2 19.3,107.4 30.8,96.7 20.8,99.7 31.8,90.4 23.3,91.9 36.6,81.2 44.1,89.9 36.1,89.9 45.6,97.4 34.8,95.9 44.6,104.2 34.3,103.2 47.1,112.9 34.1,110.9 34.8,119.2"/>
    <polyline stroke="rgb(0, 0, 0)" transform="matrix(4.1,0,0,6.2,-163.1,-273.2)" fill="rgb(255, 255, 255)" points="72.5,106.9 73,93.6 59.8,98.7 72.5,83 61.9,87.4 73.5,72.7 63.4,76.8 74.5,64.2 65.9,66.2 78.8,49.1 86.8,63.5 78.8,63.5 88.3,73.7 77.5,71.7 87.3,83 77,81.6 89.8,94.9 76.8,92.2 77.5,103.5"/>
    <polyline transform="matrix(4.1,0,0,6.2,-217.9,-375.3)" stroke="rgb(0, 0, 0)" fill="rgb(255, 255, 255)" points="100.2,122.5 100.7,114.8 90,117.7 100.2,108.6 91.7,111.2 101.1,102.7 93,105.1 101.8,97.8 95,99 105.7,90.5 111.7,97.4 105.2,97.4 113,103.3 104.2,102.1 112.2,108.6 103.8,107.8 114.2,115.5 103.7,114 104.2,120.5"/>
    <polyline transform="matrix(4.1,0,0,6.2,-294,-384.5)" stroke="rgb(0, 0, 0)" fill="rgb(255, 255, 255)" points="136,125.1 136.4,117.4 125.7,120.4 136,111.3 127.5,113.9 136.8,105.4 128.8,107.7 137.6,100.4 130.8,101.6 141.5,93.1 147.5,100 141.1,100 148.8,106 140.1,104.8 147.9,111.3 139.7,110.5 150,118.2 139.5,116.6 140.1,123.1"/>
    <polyline transform="matrix(4.1,0,0,6.2,-355.8,-262.2)" stroke="rgb(0, 0, 0)" fill="rgb(255, 255, 255)" points="164.2,104.9 164.7,89.8 148.9,95.7 164.2,78 151.5,82.9 165.3,66.5 153.4,71.1 166.6,56.8 156.4,59.1 172.3,42.7 181.3,56 171.7,56 183.1,67.6 170.2,65.3 181.9,78 169.5,76.5 184.9,91.4 169.3,88.3 170.2,101.1"/>
</svg>
